STARTFONT 2.1
FONT -Adobe-Helvetica-Bold-O-Normal--17-120-100-100-P-92-ISO8859-2
SIZE 12 100 100
FONTBOUNDINGBOX 20 20 -3 -4
COMMENT $XConsortium: helvBO12.bdf,v 1.7 95/01/26 17:54:26 gildea Exp $
COMMENT 
COMMENT +
COMMENT  Copyright 1984-1989, 1994 Adobe Systems Incorporated.
COMMENT  Copyright 1988, 1994 Digital Equipment Corporation.
COMMENT
COMMENT  Adobe is a trademark of Adobe Systems Incorporated which may be
COMMENT  registered in certain jurisdictions.
COMMENT  Permission to use these trademarks is hereby granted only in
COMMENT  association with the images described in this file.
COMMENT
COMMENT  Permission to use, copy, modify, distribute and sell this software
COMMENT  and its documentation for any purpose and without fee is hereby
COMMENT  granted, provided that the above copyright notices appear in all
COMMENT  copies and that both those copyright notices and this permission
COMMENT  notice appear in supporting documentation, and that the names of
COMMENT  Adobe Systems and Digital Equipment Corporation not be used in
COMMENT  advertising or publicity pertaining to distribution of the software
COMMENT  without specific, written prior permission.  Adobe Systems and
COMMENT  Digital Equipment Corporation make no representations about the
COMMENT  suitability of this software for any purpose.  It is provided "as
COMMENT  is" without express or implied warranty.
COMMENT -
COMMENT  
COMMENT  Translation to ISO8859-2 by Cub Soft;  Petr.Kolar@vslib.cz
COMMENT  
STARTPROPERTIES 28
FOUNDRY "Adobe"
FAMILY_NAME "Helvetica"
WEIGHT_NAME "Bold"
SLANT "O"
SETWIDTH_NAME "Normal"
ADD_STYLE_NAME ""
PIXEL_SIZE 17
POINT_SIZE 120
RESOLUTION_X 100
RESOLUTION_Y 100
SPACING "P"
AVERAGE_WIDTH 92
CHARSET_REGISTRY "ISO8859"
CHARSET_ENCODING "2"
CAP_HEIGHT 12
X_HEIGHT 9
FONT_ASCENT 14
FONT_DESCENT 4
FACE_NAME "Helvetica Bold Oblique"

STARTCHAR space
ENCODING 32
SWIDTH 278 0
DWIDTH 5 0
BBX 1 1 0 0
BITMAP
00
ENDCHAR
STARTCHAR exclam
ENCODING 33
SWIDTH 333 0
DWIDTH 6 0
BBX 5 12 1 0
BITMAP
18
18
18
30
30
30
60
60
60
00
c0
c0
ENDCHAR
STARTCHAR quotedbl
ENCODING 34
SWIDTH 474 0
DWIDTH 8 0
BBX 5 4 3 8
BITMAP
d8
d8
d8
90
ENDCHAR
STARTCHAR numbersign
ENCODING 35
SWIDTH 556 0
DWIDTH 9 0
BBX 11 12 -1 0
BITMAP
06c0
06c0
06c0
3fe0
3fe0
1b00
1b00
ff80
ff80
6c00
6c00
6c00
ENDCHAR
STARTCHAR dollar
ENCODING 36
SWIDTH 556 0
DWIDTH 9 0
BBX 10 14 -1 -1
BITMAP
0100
0f80
1fc0
3ac0
3200
3c00
1c00
0e00
0f00
1300
d700
fe00
7c00
2000
ENDCHAR
STARTCHAR percent
ENCODING 37
SWIDTH 889 0
DWIDTH 14 0
BBX 12 12 0 0
BITMAP
7840
cc80
cc80
cd00
7a00
0200
0400
09e0
1330
1330
2330
21e0
ENDCHAR
STARTCHAR ampersand
ENCODING 38
SWIDTH 722 0
DWIDTH 12 0
BBX 10 12 0 0
BITMAP
0f00
1f80
1980
1b80
1f00
3e00
7cc0
efc0
c780
cf00
ff80
79c0
ENDCHAR
STARTCHAR apostrophe
ENCODING 39
SWIDTH 278 0
DWIDTH 5 0
BBX 3 5 1 7
BITMAP
60
60
20
40
80
ENDCHAR
STARTCHAR parenleft
ENCODING 40
SWIDTH 333 0
DWIDTH 6 0
BBX 7 15 0 -3
BITMAP
06
0c
18
30
30
60
60
c0
c0
c0
c0
c0
60
60
30
ENDCHAR
STARTCHAR parenright
ENCODING 41
SWIDTH 333 0
DWIDTH 6 0
BBX 7 15 -2 -3
BITMAP
18
0c
0c
06
06
06
06
06
0c
0c
18
18
30
60
c0
ENDCHAR
STARTCHAR asterisk
ENCODING 42
SWIDTH 389 0
DWIDTH 6 0
BBX 5 5 1 7
BITMAP
20
a8
70
60
90
ENDCHAR
STARTCHAR plus
ENCODING 43
SWIDTH 584 0
DWIDTH 10 0
BBX 9 8 0 0
BITMAP
0c00
0c00
0c00
ff80
ff80
1800
1800
1800
ENDCHAR
STARTCHAR comma
ENCODING 44
SWIDTH 278 0
DWIDTH 4 0
BBX 3 5 0 -3
BITMAP
60
60
20
40
80
ENDCHAR
STARTCHAR minus
ENCODING 45
SWIDTH 584 0
DWIDTH 10 0
BBX 8 2 0 3
BITMAP
ff
ff
ENDCHAR
STARTCHAR period
ENCODING 46
SWIDTH 278 0
DWIDTH 4 0
BBX 2 2 1 0
BITMAP
c0
c0
ENDCHAR
STARTCHAR slash
ENCODING 47
SWIDTH 278 0
DWIDTH 5 0
BBX 6 12 0 0
BITMAP
04
04
08
08
10
10
20
20
40
40
80
80
ENDCHAR
STARTCHAR zero
ENCODING 48
SWIDTH 556 0
DWIDTH 9 0
BBX 9 12 0 0
BITMAP
1e00
3f00
7180
6180
e180
c180
c180
c380
c300
c700
7e00
3c00
ENDCHAR
STARTCHAR one
ENCODING 49
SWIDTH 556 0
DWIDTH 9 0
BBX 5 12 2 0
BITMAP
18
38
f8
f0
30
30
60
60
60
c0
c0
c0
ENDCHAR
STARTCHAR two
ENCODING 50
SWIDTH 556 0
DWIDTH 9 0
BBX 9 12 0 0
BITMAP
1f00
3f80
7180
6180
6180
0300
0f00
3c00
7000
e000
ff00
ff00
ENDCHAR
STARTCHAR three
ENCODING 51
SWIDTH 556 0
DWIDTH 9 0
BBX 9 12 -1 0
BITMAP
1f00
3f80
3180
0180
0380
1f00
1e00
0700
c300
c700
fe00
7c00
ENDCHAR
STARTCHAR four
ENCODING 52
SWIDTH 556 0
DWIDTH 9 0
BBX 9 12 -1 0
BITMAP
0380
0780
0d80
1b00
3300
6300
c600
ff00
ff00
0600
0c00
0c00
ENDCHAR
STARTCHAR five
ENCODING 53
SWIDTH 556 0
DWIDTH 9 0
BBX 9 12 -1 0
BITMAP
0f80
1f80
1800
3000
3e00
7f00
6700
0300
0300
c700
fe00
7c00
ENDCHAR
STARTCHAR six
ENCODING 54
SWIDTH 556 0
DWIDTH 9 0
BBX 9 12 0 0
BITMAP
0f00
1f80
3180
6000
6e00
7f00
e300
c300
c300
ce00
fc00
7800
ENDCHAR
STARTCHAR seven
ENCODING 55
SWIDTH 556 0
DWIDTH 9 0
BBX 9 12 0 0
BITMAP
7f80
7f80
0180
0700
0e00
1c00
3800
3000
6000
e000
c000
c000
ENDCHAR
STARTCHAR eight
ENCODING 56
SWIDTH 556 0
DWIDTH 9 0
BBX 9 12 -1 0
BITMAP
0f00
1f80
3980
3180
3380
3f00
7e00
e300
c300
c700
fe00
7c00
ENDCHAR
STARTCHAR nine
ENCODING 57
SWIDTH 556 0
DWIDTH 9 0
BBX 9 12 -1 0
BITMAP
0f00
1f80
3980
6180
6180
6380
7f00
3b00
0300
c600
fc00
7800
ENDCHAR
STARTCHAR colon
ENCODING 58
SWIDTH 333 0
DWIDTH 5 0
BBX 4 8 0 0
BITMAP
30
30
00
00
00
00
c0
c0
ENDCHAR
STARTCHAR semicolon
ENCODING 59
SWIDTH 333 0
DWIDTH 5 0
BBX 5 11 -1 -3
BITMAP
18
18
00
00
00
00
60
60
20
40
80
ENDCHAR
STARTCHAR less
ENCODING 60
SWIDTH 584 0
DWIDTH 10 0
BBX 9 8 0 0
BITMAP
0180
0780
1e00
7800
e000
7800
1e00
0600
ENDCHAR
STARTCHAR equal
ENCODING 61
SWIDTH 584 0
DWIDTH 10 0
BBX 9 6 0 1
BITMAP
7f80
7f80
0000
0000
ff00
ff00
ENDCHAR
STARTCHAR greater
ENCODING 62
SWIDTH 584 0
DWIDTH 10 0
BBX 9 8 0 0
BITMAP
3000
3c00
0f00
0380
0f00
3c00
f000
c000
ENDCHAR
STARTCHAR question
ENCODING 63
SWIDTH 611 0
DWIDTH 10 0
BBX 8 12 2 0
BITMAP
3e
7f
e3
c3
07
0e
1c
38
30
00
60
60
ENDCHAR
STARTCHAR at
ENCODING 64
SWIDTH 975 0
DWIDTH 16 0
BBX 14 14 1 -2
BITMAP
03f0
0e18
180c
21e4
6664
4cc4
cccc
9988
9998
9a90
cee0
4000
7300
1c00
ENDCHAR
STARTCHAR A
ENCODING 65
SWIDTH 722 0
DWIDTH 12 0
BBX 11 12 -1 0
BITMAP
01c0
03c0
07c0
06c0
0ec0
1cc0
18c0
3fe0
7fe0
6060
e060
c060
ENDCHAR
STARTCHAR B
ENCODING 66
SWIDTH 722 0
DWIDTH 12 0
BBX 11 12 0 0
BITMAP
1fc0
1fe0
1860
3060
30e0
3fc0
7f80
60c0
60c0
c1c0
ff80
ff00
ENDCHAR
STARTCHAR C
ENCODING 67
SWIDTH 722 0
DWIDTH 12 0
BBX 11 12 1 0
BITMAP
0f80
3fc0
78e0
6060
e000
c000
c000
c000
c0c0
e1c0
7f80
3e00
ENDCHAR
STARTCHAR D
ENCODING 68
SWIDTH 722 0
DWIDTH 12 0
BBX 11 12 0 0
BITMAP
1f80
1fc0
3860
3060
3060
3060
60e0
60c0
61c0
c380
ff00
fe00
ENDCHAR
STARTCHAR E
ENCODING 69
SWIDTH 667 0
DWIDTH 11 0
BBX 11 12 0 0
BITMAP
1fe0
1fe0
1800
3000
3000
3f80
7f80
6000
6000
c000
ff00
ff00
ENDCHAR
STARTCHAR F
ENCODING 70
SWIDTH 611 0
DWIDTH 10 0
BBX 11 12 0 0
BITMAP
1fe0
1fe0
1800
3000
3000
3f80
7f80
6000
6000
c000
c000
c000
ENDCHAR
STARTCHAR G
ENCODING 71
SWIDTH 778 0
DWIDTH 13 0
BBX 11 12 1 0
BITMAP
0f80
3fc0
78e0
6060
e000
c000
c7c0
c7c0
c0c0
e1c0
7f80
3d80
ENDCHAR
STARTCHAR H
ENCODING 72
SWIDTH 722 0
DWIDTH 12 0
BBX 12 12 0 0
BITMAP
1830
1830
1830
3060
3fe0
3fe0
60c0
60c0
60c0
c180
c180
c180
ENDCHAR
STARTCHAR I
ENCODING 73
SWIDTH 278 0
DWIDTH 4 0
BBX 5 12 -1 0
BITMAP
18
18
18
30
30
30
60
60
60
c0
c0
c0
ENDCHAR
STARTCHAR J
ENCODING 74
SWIDTH 556 0
DWIDTH 9 0
BBX 10 12 -1 0
BITMAP
00c0
00c0
00c0
0180
0180
0180
0300
0300
c300
c600
fe00
7c00
ENDCHAR
STARTCHAR K
ENCODING 75
SWIDTH 722 0
DWIDTH 12 0
BBX 13 12 0 0
BITMAP
1838
1870
18e0
3380
3700
3c00
7e00
6700
6380
c1c0
c0e0
c060
ENDCHAR
STARTCHAR L
ENCODING 76
SWIDTH 611 0
DWIDTH 10 0
BBX 8 12 0 0
BITMAP
18
18
18
30
30
30
60
60
60
c0
ff
ff
ENDCHAR
STARTCHAR M
ENCODING 77
SWIDTH 833 0
DWIDTH 13 0
BBX 15 12 -1 0
BITMAP
1c0e
1c1e
1c1e
3c3c
3c6c
2c6c
6cd8
6cd8
6598
c730
c730
c630
ENDCHAR
STARTCHAR N
ENCODING 78
SWIDTH 722 0
DWIDTH 12 0
BBX 13 12 -1 0
BITMAP
1c18
1c18
1c18
3630
3630
3630
6360
6360
6360
c1c0
c1c0
c1c0
ENDCHAR
STARTCHAR O
ENCODING 79
SWIDTH 778 0
DWIDTH 13 0
BBX 11 12 1 0
BITMAP
0f80
3fc0
78e0
6060
e060
c060
c060
c0e0
c0c0
e3c0
7f80
3e00
ENDCHAR
STARTCHAR P
ENCODING 80
SWIDTH 667 0
DWIDTH 11 0
BBX 11 12 0 0
BITMAP
1fc0
1fe0
1860
3060
3060
30c0
7fc0
7f00
6000
c000
c000
c000
ENDCHAR
STARTCHAR Q
ENCODING 81
SWIDTH 778 0
DWIDTH 13 0
BBX 11 13 1 -1
BITMAP
0f80
3fc0
78e0
6060
e060
c060
c060
c2e0
c7c0
e380
7fc0
3ee0
0040
ENDCHAR
STARTCHAR R
ENCODING 82
SWIDTH 722 0
DWIDTH 12 0
BBX 12 12 0 0
BITMAP
1fe0
1ff0
1830
3030
3070
3fe0
7f80
60c0
60c0
c180
c180
c180
ENDCHAR
STARTCHAR S
ENCODING 83
SWIDTH 667 0
DWIDTH 11 0
BBX 11 12 0 0
BITMAP
0fc0
1fe0
3860
3060
3800
1e00
0f00
0380
c180
c380
ff00
7e00
ENDCHAR
STARTCHAR T
ENCODING 84
SWIDTH 611 0
DWIDTH 10 0
BBX 10 12 1 0
BITMAP
ffc0
ffc0
0c00
1c00
1800
1800
3000
3000
3000
6000
6000
6000
ENDCHAR
STARTCHAR U
ENCODING 85
SWIDTH 722 0
DWIDTH 12 0
BBX 11 12 1 0
BITMAP
3060
3060
3060
60c0
60c0
60c0
c180
c180
c380
c700
fe00
7c00
ENDCHAR
STARTCHAR V
ENCODING 86
SWIDTH 667 0
DWIDTH 11 0
BBX 12 12 1 0
BITMAP
c070
c0e0
c1c0
c180
c380
c700
c600
cc00
dc00
7800
7000
6000
ENDCHAR
STARTCHAR W
ENCODING 87
SWIDTH 944 0
DWIDTH 15 0
BBX 16 12 1 0
BITMAP
c307
c30e
c31c
c718
cf38
cf30
db60
f3e0
f3c0
e380
c300
c300
ENDCHAR
STARTCHAR X
ENCODING 88
SWIDTH 667 0
DWIDTH 11 0
BBX 13 12 -1 0
BITMAP
3838
1870
1ce0
0dc0
0f80
0700
0e00
1f00
3b00
7380
e180
c1c0
ENDCHAR
STARTCHAR Y
ENCODING 89
SWIDTH 667 0
DWIDTH 11 0
BBX 11 12 2 0
BITMAP
c0e0
c1c0
e380
6700
6e00
7c00
3800
3000
3000
6000
6000
6000
ENDCHAR
STARTCHAR Z
ENCODING 90
SWIDTH 611 0
DWIDTH 10 0
BBX 12 12 -1 0
BITMAP
1ff0
1ff0
00e0
01c0
0380
0700
0e00
1c00
3800
7000
ff80
ff80
ENDCHAR
STARTCHAR bracketleft
ENCODING 91
SWIDTH 333 0
DWIDTH 6 0
BBX 8 15 -1 -3
BITMAP
0f
0f
0c
18
18
18
30
30
30
60
60
60
c0
f0
f0
ENDCHAR
STARTCHAR backslash
ENCODING 92
SWIDTH 278 0
DWIDTH 5 0
BBX 4 12 0 0
BITMAP
80
80
80
40
40
40
20
20
20
10
10
10
ENDCHAR
STARTCHAR bracketright
ENCODING 93
SWIDTH 333 0
DWIDTH 6 0
BBX 8 15 -2 -3
BITMAP
0f
0f
03
06
06
06
0c
0c
0c
18
18
18
30
f0
f0
ENDCHAR
STARTCHAR asciicircum
ENCODING 94
SWIDTH 584 0
DWIDTH 10 0
BBX 6 7 2 5
BITMAP
38
38
38
68
6c
cc
cc
ENDCHAR
STARTCHAR underscore
ENCODING 95
SWIDTH 556 0
DWIDTH 9 0
BBX 9 1 -2 -3
BITMAP
ff80
ENDCHAR
STARTCHAR grave
ENCODING 96
SWIDTH 333 0
DWIDTH 6 0
BBX 3 3 2 10
BITMAP
c0
40
20
ENDCHAR
STARTCHAR a
ENCODING 97
SWIDTH 556 0
DWIDTH 9 0
BBX 8 9 0 0
BITMAP
3e
7f
63
07
7f
e6
ce
fe
77
ENDCHAR
STARTCHAR b
ENCODING 98
SWIDTH 611 0
DWIDTH 10 0
BBX 9 12 0 0
BITMAP
1800
1800
1800
3700
3f80
3180
7180
6180
6300
e300
fe00
dc00
ENDCHAR
STARTCHAR c
ENCODING 99
SWIDTH 556 0
DWIDTH 9 0
BBX 9 9 0 0
BITMAP
0f00
3f80
7180
6000
c000
c300
c700
fe00
7800
ENDCHAR
STARTCHAR d
ENCODING 100
SWIDTH 611 0
DWIDTH 10 0
BBX 10 12 0 0
BITMAP
00c0
00c0
00c0
1d80
3f80
6380
6300
c300
c700
c600
fe00
7600
ENDCHAR
STARTCHAR e
ENCODING 101
SWIDTH 556 0
DWIDTH 9 0
BBX 8 9 0 0
BITMAP
1e
3f
63
ff
ff
c0
e6
fe
7c
ENDCHAR
STARTCHAR f
ENCODING 102
SWIDTH 333 0
DWIDTH 5 0
BBX 7 12 0 0
BITMAP
0e
1e
18
7c
7c
30
60
60
60
c0
c0
c0
ENDCHAR
STARTCHAR g
ENCODING 103
SWIDTH 611 0
DWIDTH 10 0
BBX 11 13 -1 -4
BITMAP
0760
0fe0
1ce0
30c0
30c0
31c0
3380
3f80
1d80
0300
e700
7e00
3c00
ENDCHAR
STARTCHAR h
ENCODING 104
SWIDTH 611 0
DWIDTH 10 0
BBX 10 12 0 0
BITMAP
1800
1800
1800
3780
3fc0
38c0
6180
6180
6180
c300
c300
c300
ENDCHAR
STARTCHAR i
ENCODING 105
SWIDTH 278 0
DWIDTH 4 0
BBX 5 12 0 0
BITMAP
18
18
00
30
30
30
60
60
60
c0
c0
c0
ENDCHAR
STARTCHAR j
ENCODING 106
SWIDTH 278 0
DWIDTH 5 0
BBX 8 16 -3 -4
BITMAP
03
03
00
06
06
06
0c
0c
0c
18
18
18
30
30
f0
e0
ENDCHAR
STARTCHAR k
ENCODING 107
SWIDTH 556 0
DWIDTH 9 0
BBX 10 12 0 0
BITMAP
1800
1800
1800
31c0
3380
3700
7e00
7e00
6600
e700
c300
c380
ENDCHAR
STARTCHAR l
ENCODING 108
SWIDTH 278 0
DWIDTH 5 0
BBX 5 12 0 0
BITMAP
18
18
18
30
30
30
60
60
60
c0
c0
c0
ENDCHAR
STARTCHAR m
ENCODING 109
SWIDTH 889 0
DWIDTH 14 0
BBX 14 9 0 0
BITMAP
37b8
3ffc
39cc
6318
6318
6318
c630
c630
c630
ENDCHAR
STARTCHAR n
ENCODING 110
SWIDTH 611 0
DWIDTH 10 0
BBX 10 9 0 0
BITMAP
3780
3fc0
38c0
6180
6180
6180
c300
c300
c300
ENDCHAR
STARTCHAR o
ENCODING 111
SWIDTH 611 0
DWIDTH 10 0
BBX 9 9 0 0
BITMAP
0f00
3f80
7180
6180
c180
c300
c700
fe00
7800
ENDCHAR
STARTCHAR p
ENCODING 112
SWIDTH 611 0
DWIDTH 10 0
BBX 10 13 -1 -4
BITMAP
1b80
1fc0
18c0
38c0
30c0
3180
7180
7f00
6e00
6000
c000
c000
c000
ENDCHAR
STARTCHAR q
ENCODING 113
SWIDTH 611 0
DWIDTH 10 0
BBX 9 13 1 -4
BITMAP
1d80
7f80
6380
e300
c300
c700
c600
fe00
7600
0600
0c00
0c00
0c00
ENDCHAR
STARTCHAR r
ENCODING 114
SWIDTH 389 0
DWIDTH 6 0
BBX 7 9 0 0
BITMAP
36
3e
38
60
60
60
c0
c0
c0
ENDCHAR
STARTCHAR s
ENCODING 115
SWIDTH 556 0
DWIDTH 9 0
BBX 8 9 0 0
BITMAP
3e
7f
63
70
3c
0e
c6
fe
7c
ENDCHAR
STARTCHAR t
ENCODING 116
SWIDTH 333 0
DWIDTH 6 0
BBX 6 12 0 0
BITMAP
18
18
18
7c
7c
30
30
60
60
c0
f0
70
ENDCHAR
STARTCHAR u
ENCODING 117
SWIDTH 611 0
DWIDTH 10 0
BBX 10 9 0 0
BITMAP
30c0
30c0
30c0
6180
6180
6180
c700
ff00
7b00
ENDCHAR
STARTCHAR v
ENCODING 118
SWIDTH 556 0
DWIDTH 9 0
BBX 8 9 1 0
BITMAP
c3
c3
c6
cc
cc
78
70
60
60
ENDCHAR
STARTCHAR w
ENCODING 119
SWIDTH 778 0
DWIDTH 13 0
BBX 12 9 1 0
BITMAP
c630
c630
ce60
ce60
dec0
d380
7300
6300
6200
ENDCHAR
STARTCHAR x
ENCODING 120
SWIDTH 556 0
DWIDTH 9 0
BBX 9 9 0 0
BITMAP
6180
6380
3700
3e00
1c00
3c00
7600
e700
c300
ENDCHAR
STARTCHAR y
ENCODING 121
SWIDTH 556 0
DWIDTH 9 0
BBX 10 13 -1 -4
BITMAP
30c0
30c0
31c0
3180
3b80
1b00
1e00
1e00
1c00
1800
3800
f000
e000
ENDCHAR
STARTCHAR z
ENCODING 122
SWIDTH 500 0
DWIDTH 8 0
BBX 9 9 -1 0
BITMAP
3f80
3f80
0700
0e00
1c00
3800
7000
fe00
fe00
ENDCHAR
STARTCHAR braceleft
ENCODING 123
SWIDTH 389 0
DWIDTH 6 0
BBX 7 15 0 -3
BITMAP
0e
1e
18
18
38
30
f0
e0
60
60
e0
c0
c0
e0
60
ENDCHAR
STARTCHAR bar
ENCODING 124
SWIDTH 280 0
DWIDTH 3 0
BBX 5 16 -1 -4
BITMAP
08
08
08
10
10
10
20
20
20
40
40
40
80
80
80
80
ENDCHAR
STARTCHAR braceright
ENCODING 125
SWIDTH 389 0
DWIDTH 6 0
BBX 7 15 -2 -3
BITMAP
0c
0e
06
06
0e
0c
0c
0e
1e
18
38
30
30
f0
e0
ENDCHAR
STARTCHAR asciitilde
ENCODING 126
SWIDTH 584 0
DWIDTH 10 0
BBX 7 2 1 3
BITMAP
72
9c
ENDCHAR
STARTCHAR nobreakspace
ENCODING 160
SWIDTH 278 0
DWIDTH 5 0
BBX 1 1 0 0
BITMAP
00
ENDCHAR
STARTCHAR Aogonek
ENCODING 161
SWIDTH 722 0
DWIDTH 12 0
BBX 11 16 -1 -4
BITMAP
01c0
03c0
07c0
06c0
0ec0
1cc0
18c0
3fe0
7fe0
6060
e060
c060
0400
0800
0d00
0e00
ENDCHAR
STARTCHAR breve
ENCODING 162
SWIDTH 333 0
DWIDTH 6 0
BBX 5 2 2 10
BITMAP
88
70
ENDCHAR
STARTCHAR Lstroke
ENCODING 163
SWIDTH 611 0
DWIDTH 10 0
BBX 9 12 -1 0
BITMAP
0c00
0c00
0c00
1a00
1c00
1800
7000
b000
3000
6000
7f80
7f80
ENDCHAR
STARTCHAR currency
ENCODING 164
SWIDTH 556 0
DWIDTH 9 0
BBX 9 7 -1 2
BITMAP
2e80
1f00
3180
6180
6300
7e00
9d00
ENDCHAR
STARTCHAR Lcaron
ENCODING 165
SWIDTH 660 0
DWIDTH 11 0
BBX 9 13 0 0
BITMAP
0180
1980
1880
1900
3200
3000
3000
6000
6000
6000
c000
ff00
ff00
ENDCHAR
STARTCHAR Sacute
ENCODING 166
SWIDTH 667 0
DWIDTH 11 0
BBX 11 16 0 0
BITMAP
00c0
0080
0100
0000
0fc0
1fe0
3860
3060
3800
1e00
0f00
0380
c180
c380
ff00
7e00
ENDCHAR
STARTCHAR section
ENCODING 167
SWIDTH 556 0
DWIDTH 9 0
BBX 10 15 -1 -3
BITMAP
0780
0fc0
1cc0
1800
1e00
3f00
6380
6180
7980
3f00
1e00
0600
ce00
fc00
7800
ENDCHAR
STARTCHAR diaeresis
ENCODING 168
SWIDTH 333 0
DWIDTH 6 0
BBX 5 2 2 10
BITMAP
d8
d8
ENDCHAR
STARTCHAR Scaron
ENCODING 169
SWIDTH 667 0
DWIDTH 11 0
BBX 11 16 0 0
BITMAP
0220
0140
0180
0000
0fc0
1fe0
3860
3060
3800
1e00
0f00
0380
c180
c380
ff00
7e00
ENDCHAR
STARTCHAR Scedilla
ENCODING 170
SWIDTH 667 0
DWIDTH 11 0
BBX 11 16 0 -4
BITMAP
0fc0
1fe0
3860
3060
3800
1e00
0f00
0380
c180
c380
ff00
7e00
0400
0600
1300
0e00
ENDCHAR
STARTCHAR Tcaron
ENCODING 171
SWIDTH 611 0
DWIDTH 10 0
BBX 10 16 1 0
BITMAP
0880
0500
0600
0000
ffc0
ffc0
0c00
1c00
1800
1800
3000
3000
3000
6000
6000
6000
ENDCHAR
STARTCHAR Zacute
ENCODING 172
SWIDTH 611 0
DWIDTH 10 0
BBX 12 16 -1 0
BITMAP
00c0
0080
0100
0000
1ff0
1ff0
00e0
01c0
0380
0700
0e00
1c00
3800
7000
ff80
ff80
ENDCHAR
STARTCHAR hyphen
ENCODING 173
SWIDTH 333 0
DWIDTH 5 0
BBX 4 2 0 3
BITMAP
f0
f0
ENDCHAR
STARTCHAR Zcaron
ENCODING 174
SWIDTH 611 0
DWIDTH 10 0
BBX 12 16 -1 0
BITMAP
0220
0140
0180
0000
1ff0
1ff0
00e0
01c0
0380
0700
0e00
1c00
3800
7000
ff80
ff80
ENDCHAR
STARTCHAR Zabovedot
ENCODING 175
SWIDTH 611 0
DWIDTH 10 0
BBX 12 15 -1 0
BITMAP
0180
0180
0000
1ff0
1ff0
00e0
01c0
0380
0700
0e00
1c00
3800
7000
ff80
ff80
ENDCHAR
STARTCHAR degree
ENCODING 176
SWIDTH 400 0
DWIDTH 7 0
BBX 5 5 1 7
BITMAP
70
c8
88
98
70
ENDCHAR
STARTCHAR aogonek
ENCODING 177
SWIDTH 556 0
DWIDTH 9 0
BBX 8 13 0 -4
BITMAP
3e
7f
63
07
7f
e6
ce
fe
77
10
20
34
38
ENDCHAR
STARTCHAR ogonek
ENCODING 178
SWIDTH 333 0
DWIDTH 6 0
BBX 4 4 0 -3
BITMAP
40
80
d0
e0
ENDCHAR
STARTCHAR lstroke
ENCODING 179
SWIDTH 278 0
DWIDTH 5 0
BBX 5 12 0 0
BITMAP
18
18
18
30
30
38
e0
60
60
c0
c0
c0
ENDCHAR
STARTCHAR acute
ENCODING 180
SWIDTH 333 0
DWIDTH 6 0
BBX 3 3 3 10
BITMAP
60
40
80
ENDCHAR
STARTCHAR lcaron
ENCODING 181
SWIDTH 540 0
DWIDTH 9 0
BBX 9 13 0 0
BITMAP
0180
1980
1880
1900
3200
3000
3000
6000
6000
6000
c000
c000
c000
ENDCHAR
STARTCHAR sacute
ENCODING 182
SWIDTH 556 0
DWIDTH 9 0
BBX 8 13 0 0
BITMAP
06
04
08
00
3e
7f
63
70
3c
0e
c6
fe
7c
ENDCHAR
STARTCHAR caron
ENCODING 183
SWIDTH 333 0
DWIDTH 6 0
BBX 5 3 2 10
BITMAP
88
50
60
ENDCHAR
STARTCHAR cedilla
ENCODING 184
SWIDTH 333 0
DWIDTH 6 0
BBX 5 4 -1 -4
BITMAP
20
30
98
70
ENDCHAR
STARTCHAR scaron
ENCODING 185
SWIDTH 556 0
DWIDTH 9 0
BBX 8 13 0 0
BITMAP
11
0a
0c
00
3e
7f
63
70
3c
0e
c6
fe
7c
ENDCHAR
STARTCHAR scedilla
ENCODING 186
SWIDTH 556 0
DWIDTH 9 0
BBX 8 13 0 -4
BITMAP
3e
7f
63
70
3c
0e
c6
fe
7c
10
18
4c
38
ENDCHAR
STARTCHAR tcaron
ENCODING 187
SWIDTH 540 0
DWIDTH 9 0
BBX 9 15 0 0
BITMAP
0180
0180
0080
1900
1a00
1800
7c00
7c00
3000
3000
6000
6000
c000
f000
7000
ENDCHAR
STARTCHAR zacute
ENCODING 188
SWIDTH 500 0
DWIDTH 8 0
BBX 9 13 -1 0
BITMAP
0300
0200
0400
0000
3f80
3f80
0700
0e00
1c00
3800
7000
fe00
fe00
ENDCHAR
STARTCHAR doubleacute
ENCODING 189
SWIDTH 333 0
DWIDTH 6 0
BBX 7 3 1 10
BITMAP
36
6c
90
ENDCHAR
STARTCHAR zcaron
ENCODING 190
SWIDTH 500 0
DWIDTH 8 0
BBX 9 13 -1 0
BITMAP
0880
0500
0600
0000
3f80
3f80
0700
0e00
1c00
3800
7000
fe00
fe00
ENDCHAR
STARTCHAR zabovedot
ENCODING 191
SWIDTH 500 0
DWIDTH 8 0
BBX 9 12 -1 0
BITMAP
0600
0600
0000
3f80
3f80
0700
0e00
1c00
3800
7000
fe00
fe00
ENDCHAR
STARTCHAR Racute
ENCODING 192
SWIDTH 722 0
DWIDTH 12 0
BBX 12 16 0 0
BITMAP
00c0
0080
0100
0000
1fe0
1ff0
1830
3030
3070
3fe0
7f80
60c0
60c0
c180
c180
c180
ENDCHAR
STARTCHAR Aacute
ENCODING 193
SWIDTH 722 0
DWIDTH 12 0
BBX 11 16 -1 0
BITMAP
0060
00c0
0080
0000
01c0
03c0
07c0
06c0
0ec0
1cc0
18c0
3fe0
7fe0
6060
e060
c060
ENDCHAR
STARTCHAR Acircumflex
ENCODING 194
SWIDTH 722 0
DWIDTH 12 0
BBX 11 16 -1 0
BITMAP
0060
00e0
0120
0000
01c0
03c0
07c0
06c0
0ec0
1cc0
18c0
3fe0
7fe0
6060
e060
c060
ENDCHAR
STARTCHAR Abreve
ENCODING 195
SWIDTH 722 0
DWIDTH 12 0
BBX 11 15 -1 0
BITMAP
0220
01c0
0000
01c0
03c0
07c0
06c0
0ec0
1cc0
18c0
3fe0
7fe0
6060
e060
c060
ENDCHAR
STARTCHAR Adiaeresis
ENCODING 196
SWIDTH 722 0
DWIDTH 12 0
BBX 12 15 -1 0
BITMAP
0330
0330
0000
01c0
03c0
07c0
06c0
0ec0
1cc0
18c0
3fe0
7fe0
6060
e060
c060
ENDCHAR
STARTCHAR Lacute
ENCODING 197
SWIDTH 611 0
DWIDTH 10 0
BBX 8 16 0 0
BITMAP
06
04
08
00
18
18
18
30
30
30
60
60
60
c0
ff
ff
ENDCHAR
STARTCHAR Cacute
ENCODING 198
SWIDTH 722 0
DWIDTH 12 0
BBX 11 16 1 0
BITMAP
0180
0100
0200
0000
0f80
3fc0
78e0
6060
e000
c000
c000
c000
c0c0
e1c0
7f80
3e00
ENDCHAR
STARTCHAR Ccedilla
ENCODING 199
SWIDTH 722 0
DWIDTH 12 0
BBX 11 16 1 -4
BITMAP
0f80
3fc0
78e0
6060
e000
c000
c000
c000
c0c0
e1c0
7f80
3e00
0800
0c00
2600
1c00
ENDCHAR
STARTCHAR Ccaron
ENCODING 200
SWIDTH 722 0
DWIDTH 12 0
BBX 11 16 1 0
BITMAP
0440
0280
0300
0000
0f80
3fc0
78e0
6060
e000
c000
c000
c000
c0c0
e1c0
7f80
3e00
ENDCHAR
STARTCHAR Eacute
ENCODING 201
SWIDTH 667 0
DWIDTH 11 0
BBX 11 16 0 0
BITMAP
00c0
0180
0200
0000
1fe0
1fe0
1800
3000
3000
3f80
7f80
6000
6000
c000
ff00
ff00
ENDCHAR
STARTCHAR Eogonek
ENCODING 202
SWIDTH 667 0
DWIDTH 11 0
BBX 11 16 0 -4
BITMAP
1fe0
1fe0
1800
3000
3000
3f80
7f80
6000
6000
c000
ff00
ff00
0400
0800
0d00
0e00
ENDCHAR
STARTCHAR Ediaeresis
ENCODING 203
SWIDTH 667 0
DWIDTH 11 0
BBX 11 15 0 0
BITMAP
0cc0
0cc0
0000
1fe0
1fe0
1800
3000
3000
3f80
7f80
6000
6000
c000
ff00
ff00
ENDCHAR
STARTCHAR Ecaron
ENCODING 204
SWIDTH 667 0
DWIDTH 11 0
BBX 11 16 0 0
BITMAP
0220
0140
0180
0000
1fe0
1fe0
1800
3000
3000
3f80
7f80
6000
6000
c000
ff00
ff00
ENDCHAR
STARTCHAR Iacute
ENCODING 205
SWIDTH 278 0
DWIDTH 4 0
BBX 7 16 -1 0
BITMAP
06
0c
08
00
18
18
18
30
30
30
60
60
60
c0
c0
c0
ENDCHAR
STARTCHAR Icircumflex
ENCODING 206
SWIDTH 278 0
DWIDTH 4 0
BBX 6 16 -1 0
BITMAP
0c
1c
24
00
18
18
18
30
30
30
60
60
60
c0
c0
c0
ENDCHAR
STARTCHAR Dcaron
ENCODING 207
SWIDTH 722 0
DWIDTH 12 0
BBX 11 16 0 0
BITMAP
0440
0280
0300
0000
1f80
1fc0
3860
3060
3060
3060
60e0
60c0
61c0
c380
ff00
fe00
ENDCHAR
STARTCHAR Dstroke
ENCODING 208
SWIDTH 722 0
DWIDTH 12 0
BBX 11 12 0 0
BITMAP
1f80
1fc0
3860
3060
3060
f860
f8e0
60c0
61c0
c380
ff00
fe00
ENDCHAR
STARTCHAR Nacute
ENCODING 209
SWIDTH 722 0
DWIDTH 12 0
BBX 13 16 -1 0
BITMAP
0060
0040
0080
0000
1c18
1c18
1c18
3630
3630
3630
6360
6360
6360
c1c0
c1c0
c1c0
ENDCHAR
STARTCHAR Ncaron
ENCODING 210
SWIDTH 722 0
DWIDTH 12 0
BBX 13 16 -1 0
BITMAP
0110
00a0
00c0
0000
1c18
1c18
1c18
3630
3630
3630
6360
6360
6360
c1c0
c1c0
c1c0
ENDCHAR
STARTCHAR Oacute
ENCODING 211
SWIDTH 778 0
DWIDTH 13 0
BBX 11 16 1 0
BITMAP
0180
0300
0200
0000
0f80
3fc0
78e0
6060
e060
c060
c060
c0e0
c0c0
e3c0
7f80
3e00
ENDCHAR
STARTCHAR Ocircumflex
ENCODING 212
SWIDTH 778 0
DWIDTH 13 0
BBX 11 16 1 0
BITMAP
0180
0380
0480
0000
0f80
3fc0
78e0
6060
e060
c060
c060
c0e0
c0c0
e3c0
7f80
3e00
ENDCHAR
STARTCHAR Odoubleacute
ENCODING 213
SWIDTH 778 0
DWIDTH 13 0
BBX 12 16 1 0
BITMAP
01b0
0360
0480
0000
0f80
3fc0
78e0
6060
e060
c060
c060
c0e0
c0c0
e3c0
7f80
3e00
ENDCHAR
STARTCHAR Odiaeresis
ENCODING 214
SWIDTH 778 0
DWIDTH 13 0
BBX 11 15 1 0
BITMAP
0cc0
0cc0
0000
0f80
3fc0
78e0
6060
e060
c060
c060
c0e0
c0c0
e3c0
7f80
3e00
ENDCHAR
STARTCHAR multiply
ENCODING 215
SWIDTH 584 0
DWIDTH 10 0
BBX 8 7 1 1
BITMAP
42
e7
7e
3c
7e
e7
42
ENDCHAR
STARTCHAR Rcaron
ENCODING 216
SWIDTH 722 0
DWIDTH 12 0
BBX 12 16 0 0
BITMAP
0220
0140
0180
0000
1fe0
1ff0
1830
3030
3070
3fe0
7f80
60c0
60c0
c180
c180
c180
ENDCHAR
STARTCHAR Uring
ENCODING 217
SWIDTH 722 0
DWIDTH 12 0
BBX 11 17 1 0
BITMAP
0200
0500
0500
0200
0000
3060
3060
3060
60c0
60c0
60c0
c180
c180
c380
c700
fe00
7c00
ENDCHAR
STARTCHAR Uacute
ENCODING 218
SWIDTH 722 0
DWIDTH 12 0
BBX 11 16 1 0
BITMAP
0180
0300
0200
0000
3060
3060
3060
60c0
60c0
60c0
c180
c180
c380
c700
fe00
7c00
ENDCHAR
STARTCHAR Udoubleacute
ENCODING 219
SWIDTH 722 0
DWIDTH 12 0
BBX 12 16 1 0
BITMAP
01b0
0360
0480
0000
3060
3060
3060
60c0
60c0
60c0
c180
c180
c380
c700
fe00
7c00
ENDCHAR
STARTCHAR Udiaeresis
ENCODING 220
SWIDTH 722 0
DWIDTH 12 0
BBX 11 15 1 0
BITMAP
0cc0
0cc0
0000
3060
3060
3060
60c0
60c0
60c0
c180
c180
c380
c700
fe00
7c00
ENDCHAR
STARTCHAR Yacute
ENCODING 221
SWIDTH 667 0
DWIDTH 11 0
BBX 11 16 2 0
BITMAP
0300
0600
0400
0000
c0e0
c1c0
e380
6700
6e00
7c00
3800
3000
3000
6000
6000
6000
ENDCHAR
STARTCHAR Tcedilla
ENCODING 222
SWIDTH 611 0
DWIDTH 10 0
BBX 10 16 1 -4
BITMAP
ffc0
ffc0
0c00
1c00
1800
1800
3000
3000
3000
6000
6000
6000
0800
0c00
2600
1c00
ENDCHAR
STARTCHAR ssharp
ENCODING 223
SWIDTH 611 0
DWIDTH 10 0
BBX 10 12 0 0
BITMAP
0780
1fc0
18c0
31c0
3780
3700
6180
6180
6180
c380
cf00
ce00
ENDCHAR
STARTCHAR racute
ENCODING 224
SWIDTH 389 0
DWIDTH 6 0
BBX 7 13 0 0
BITMAP
06
04
08
00
36
3e
38
60
60
60
c0
c0
c0
ENDCHAR
STARTCHAR aacute
ENCODING 225
SWIDTH 556 0
DWIDTH 9 0
BBX 8 13 0 0
BITMAP
06
04
08
00
3e
7f
63
07
7f
e6
ce
fe
77
ENDCHAR
STARTCHAR acircumflex
ENCODING 226
SWIDTH 556 0
DWIDTH 9 0
BBX 8 13 0 0
BITMAP
06
0e
12
00
3e
7f
63
07
7f
e6
ce
fe
77
ENDCHAR
STARTCHAR abreve
ENCODING 227
SWIDTH 556 0
DWIDTH 9 0
BBX 8 12 0 0
BITMAP
22
1c
00
3e
7f
63
07
7f
e6
ce
fe
77
ENDCHAR
STARTCHAR adiaeresis
ENCODING 228
SWIDTH 556 0
DWIDTH 9 0
BBX 8 12 0 0
BITMAP
36
36
00
3e
7f
63
07
7f
e6
ce
fe
77
ENDCHAR
STARTCHAR lacute
ENCODING 229
SWIDTH 278 0
DWIDTH 5 0
BBX 7 16 0 0
BITMAP
06
04
08
00
18
18
18
30
30
30
60
60
60
c0
c0
c0
ENDCHAR
STARTCHAR cacute
ENCODING 230
SWIDTH 556 0
DWIDTH 9 0
BBX 9 13 0 0
BITMAP
0300
0200
0400
0000
0f00
3f80
7180
6000
c000
c300
c700
fe00
7800
ENDCHAR
STARTCHAR ccedilla
ENCODING 231
SWIDTH 556 0
DWIDTH 9 0
BBX 9 13 0 -4
BITMAP
0f00
3f80
7180
6000
c000
c300
c700
fe00
7800
2000
3000
9800
7000
ENDCHAR
STARTCHAR ccaron
ENCODING 232
SWIDTH 556 0
DWIDTH 9 0
BBX 9 13 0 0
BITMAP
0880
0500
0600
0000
0f00
3f80
7180
6000
c000
c300
c700
fe00
7800
ENDCHAR
STARTCHAR eacute
ENCODING 233
SWIDTH 556 0
DWIDTH 9 0
BBX 8 13 0 0
BITMAP
06
04
08
00
1e
3f
63
ff
ff
c0
e2
fe
7c
ENDCHAR
STARTCHAR eogonek
ENCODING 234
SWIDTH 556 0
DWIDTH 9 0
BBX 8 13 0 -4
BITMAP
1e
3f
63
ff
ff
c0
e6
fe
7c
10
20
34
38
ENDCHAR
STARTCHAR ediaeresis
ENCODING 235
SWIDTH 556 0
DWIDTH 9 0
BBX 8 12 0 0
BITMAP
1b
1b
00
1e
3f
63
ff
ff
c0
e2
fe
7c
ENDCHAR
STARTCHAR ecaron
ENCODING 236
SWIDTH 556 0
DWIDTH 9 0
BBX 8 13 0 0
BITMAP
11
0a
0c
00
1e
3f
63
ff
ff
c0
e6
fe
7c
ENDCHAR
STARTCHAR iacute
ENCODING 237
SWIDTH 278 0
DWIDTH 4 0
BBX 5 13 0 0
BITMAP
18
10
20
00
30
30
30
60
60
60
c0
c0
c0
ENDCHAR
STARTCHAR icircumflex
ENCODING 238
SWIDTH 278 0
DWIDTH 4 0
BBX 5 13 0 0
BITMAP
18
38
48
00
30
30
30
60
60
60
c0
c0
c0
ENDCHAR
STARTCHAR dcaron
ENCODING 239
SWIDTH 840 0
DWIDTH 14 0
BBX 14 13 0 0
BITMAP
000c
00cc
00c4
00c8
1d90
3f80
6380
6300
c300
c700
c600
fe00
7600
ENDCHAR
STARTCHAR dstroke
ENCODING 240
SWIDTH 780 0
DWIDTH 13 0
BBX 13 12 0 0
BITMAP
00c0
07f8
00c0
1d80
3f80
6380
6300
c300
c700
c600
fe00
7600
ENDCHAR
STARTCHAR nacute
ENCODING 241
SWIDTH 611 0
DWIDTH 10 0
BBX 10 13 0 0
BITMAP
0300
0200
0400
0000
3780
3fc0
38c0
6180
6180
6180
c300
c300
c300
ENDCHAR
STARTCHAR ncaron
ENCODING 242
SWIDTH 611 0
DWIDTH 10 0
BBX 10 13 0 0
BITMAP
0880
0500
0600
0000
3780
3fc0
38c0
6180
6180
6180
c300
c300
c300
ENDCHAR
STARTCHAR oacute
ENCODING 243
SWIDTH 611 0
DWIDTH 10 0
BBX 9 13 0 0
BITMAP
0300
0200
0400
0000
0f00
3f80
7180
6180
c180
c300
c700
fe00
7800
ENDCHAR
STARTCHAR ocircumflex
ENCODING 244
SWIDTH 611 0
DWIDTH 10 0
BBX 9 13 0 0
BITMAP
0300
0700
0900
0000
0f00
3f80
7180
6180
c180
c300
c700
fe00
7800
ENDCHAR
STARTCHAR odoubleacute
ENCODING 245
SWIDTH 611 0
DWIDTH 10 0
BBX 11 13 0 0
BITMAP
0360
06c0
0900
0000
0f00
3f80
7180
6180
c180
c300
c700
fe00
7800
ENDCHAR
STARTCHAR odiaeresis
ENCODING 246
SWIDTH 611 0
DWIDTH 10 0
BBX 9 12 0 0
BITMAP
0d80
0d80
0000
0f00
3f80
7180
6180
c180
c300
c700
fe00
7800
ENDCHAR
STARTCHAR division
ENCODING 247
SWIDTH 584 0
DWIDTH 10 0
BBX 9 8 0 0
BITMAP
0c00
0c00
0000
ff80
ff80
0000
1800
1800
ENDCHAR
STARTCHAR rcaron
ENCODING 248
SWIDTH 389 0
DWIDTH 6 0
BBX 8 13 0 0
BITMAP
11
0a
0c
00
36
3e
38
60
60
60
c0
c0
c0
ENDCHAR
STARTCHAR uring
ENCODING 249
SWIDTH 611 0
DWIDTH 10 0
BBX 10 14 0 0
BITMAP
0400
0a00
0a00
0400
0000
30c0
30c0
30c0
6180
6180
6180
c700
ff00
7b00
ENDCHAR
STARTCHAR uacute
ENCODING 250
SWIDTH 611 0
DWIDTH 10 0
BBX 10 13 0 0
BITMAP
0300
0200
0400
0000
30c0
30c0
30c0
6180
6180
6180
c700
ff00
7b00
ENDCHAR
STARTCHAR udoubleacute
ENCODING 251
SWIDTH 611 0
DWIDTH 10 0
BBX 11 13 0 0
BITMAP
0360
06c0
0900
0000
30c0
30c0
30c0
6180
6180
6180
c700
ff00
7b00
ENDCHAR
STARTCHAR udiaeresis
ENCODING 252
SWIDTH 611 0
DWIDTH 10 0
BBX 10 12 0 0
BITMAP
0d80
0d80
0000
30c0
30c0
30c0
6180
6180
6180
c700
ff00
7b00
ENDCHAR
STARTCHAR yacute
ENCODING 253
SWIDTH 556 0
DWIDTH 9 0
BBX 10 17 -1 -4
BITMAP
0300
0200
0400
0000
30c0
30c0
31c0
3980
1b80
1b00
1e00
1e00
1c00
1800
3800
f000
e000
ENDCHAR
STARTCHAR tcedilla
ENCODING 254
SWIDTH 333 0
DWIDTH 6 0
BBX 6 16 0 -4
BITMAP
18
18
18
7c
7c
30
30
60
60
c0
f0
70
20
30
98
70
ENDCHAR
STARTCHAR abovedot
ENCODING 255
SWIDTH 333 0
DWIDTH 6 0
BBX 2 2 4 10
BITMAP
c0
c0
ENDCHAR
ENDFONT
